<mxfile host="app.diagrams.net" agent="Mozilla/5.0 (Windows NT 10.0; Win64; x64) AppleWebKit/537.36 (KHTML, like Gecko) Chrome/128.0.0.0 Safari/537.36" version="24.7.15">
  <diagram name="Page-1" id="8RS77k_ZhXjeQN1eKJtU">
    <mxGraphModel dx="2261" dy="738" grid="1" gridSize="10" guides="1" tooltips="1" connect="1" arrows="1" fold="1" page="1" pageScale="1" pageWidth="827" pageHeight="1169" math="0" shadow="0">
      <root>
        <mxCell id="0" />
        <mxCell id="1" parent="0" />
        <mxCell id="00a7FrYYv4S6n3pGf6au-1" value="Centre&lt;div&gt;de loisirs&lt;/div&gt;" style="shape=umlActor;verticalLabelPosition=bottom;verticalAlign=top;html=1;outlineConnect=0;" vertex="1" parent="1">
          <mxGeometry y="790" width="30" height="60" as="geometry" />
        </mxCell>
        <mxCell id="00a7FrYYv4S6n3pGf6au-9" style="edgeStyle=orthogonalEdgeStyle;rounded=0;orthogonalLoop=1;jettySize=auto;html=1;entryX=0;entryY=0.5;entryDx=0;entryDy=0;dashed=1;" edge="1" parent="1" source="00a7FrYYv4S6n3pGf6au-2" target="00a7FrYYv4S6n3pGf6au-8">
          <mxGeometry relative="1" as="geometry" />
        </mxCell>
        <mxCell id="00a7FrYYv4S6n3pGf6au-2" value="Consulter les statistiques, affichage des tableaux&amp;nbsp;" style="ellipse;whiteSpace=wrap;html=1;" vertex="1" parent="1">
          <mxGeometry x="120" y="960" width="120" height="80" as="geometry" />
        </mxCell>
        <mxCell id="00a7FrYYv4S6n3pGf6au-4" value="" style="endArrow=none;html=1;rounded=0;entryX=0;entryY=0.5;entryDx=0;entryDy=0;" edge="1" parent="1" source="00a7FrYYv4S6n3pGf6au-1" target="00a7FrYYv4S6n3pGf6au-2">
          <mxGeometry width="50" height="50" relative="1" as="geometry">
            <mxPoint x="450" y="530" as="sourcePoint" />
            <mxPoint x="500" y="480" as="targetPoint" />
          </mxGeometry>
        </mxCell>
        <mxCell id="00a7FrYYv4S6n3pGf6au-5" value="Adhérent" style="shape=umlActor;verticalLabelPosition=bottom;verticalAlign=top;html=1;outlineConnect=0;" vertex="1" parent="1">
          <mxGeometry y="490" width="30" height="60" as="geometry" />
        </mxCell>
        <mxCell id="00a7FrYYv4S6n3pGf6au-10" style="edgeStyle=orthogonalEdgeStyle;rounded=0;orthogonalLoop=1;jettySize=auto;html=1;entryX=0;entryY=0.5;entryDx=0;entryDy=0;dashed=1;exitX=1;exitY=0.5;exitDx=0;exitDy=0;" edge="1" parent="1" source="00a7FrYYv4S6n3pGf6au-11" target="00a7FrYYv4S6n3pGf6au-8">
          <mxGeometry relative="1" as="geometry" />
        </mxCell>
        <mxCell id="00a7FrYYv4S6n3pGf6au-6" value="Consulter la liste des activités" style="ellipse;whiteSpace=wrap;html=1;" vertex="1" parent="1">
          <mxGeometry x="120" y="320" width="120" height="80" as="geometry" />
        </mxCell>
        <mxCell id="00a7FrYYv4S6n3pGf6au-7" value="" style="endArrow=none;html=1;rounded=0;exitX=0;exitY=0.5;exitDx=0;exitDy=0;" edge="1" parent="1" source="00a7FrYYv4S6n3pGf6au-6" target="00a7FrYYv4S6n3pGf6au-5">
          <mxGeometry width="50" height="50" relative="1" as="geometry">
            <mxPoint x="240" y="570" as="sourcePoint" />
            <mxPoint x="290" y="520" as="targetPoint" />
          </mxGeometry>
        </mxCell>
        <mxCell id="00a7FrYYv4S6n3pGf6au-8" value="&amp;lt;&amp;lt;fragement&amp;gt;&amp;gt;&lt;div&gt;Authentification&lt;/div&gt;" style="ellipse;whiteSpace=wrap;html=1;" vertex="1" parent="1">
          <mxGeometry x="400" y="780" width="120" height="80" as="geometry" />
        </mxCell>
        <mxCell id="00a7FrYYv4S6n3pGf6au-11" value="Inscription à une activité" style="ellipse;whiteSpace=wrap;html=1;" vertex="1" parent="1">
          <mxGeometry x="120" y="480" width="120" height="80" as="geometry" />
        </mxCell>
        <mxCell id="00a7FrYYv4S6n3pGf6au-12" value="" style="endArrow=none;html=1;rounded=0;exitX=0;exitY=0.5;exitDx=0;exitDy=0;" edge="1" parent="1" source="00a7FrYYv4S6n3pGf6au-11" target="00a7FrYYv4S6n3pGf6au-5">
          <mxGeometry width="50" height="50" relative="1" as="geometry">
            <mxPoint x="360" y="520" as="sourcePoint" />
            <mxPoint x="410" y="470" as="targetPoint" />
          </mxGeometry>
        </mxCell>
        <mxCell id="00a7FrYYv4S6n3pGf6au-18" value="" style="endArrow=open;html=1;rounded=0;entryX=0.5;entryY=0;entryDx=0;entryDy=0;exitX=0.5;exitY=1;exitDx=0;exitDy=0;dashed=1;endFill=0;" edge="1" parent="1" source="00a7FrYYv4S6n3pGf6au-15" target="00a7FrYYv4S6n3pGf6au-11">
          <mxGeometry width="50" height="50" relative="1" as="geometry">
            <mxPoint x="360" y="510" as="sourcePoint" />
            <mxPoint x="410" y="460" as="targetPoint" />
          </mxGeometry>
        </mxCell>
        <mxCell id="00a7FrYYv4S6n3pGf6au-19" value="" style="endArrow=open;html=1;rounded=0;entryX=0.5;entryY=0;entryDx=0;entryDy=0;exitX=0.5;exitY=1;exitDx=0;exitDy=0;dashed=1;endFill=0;" edge="1" parent="1" source="00a7FrYYv4S6n3pGf6au-6" target="00a7FrYYv4S6n3pGf6au-15">
          <mxGeometry width="50" height="50" relative="1" as="geometry">
            <mxPoint x="180" y="360" as="sourcePoint" />
            <mxPoint x="180" y="480" as="targetPoint" />
          </mxGeometry>
        </mxCell>
        <mxCell id="00a7FrYYv4S6n3pGf6au-15" value="&amp;lt;&amp;lt;extend&amp;gt;&amp;gt;" style="text;html=1;align=center;verticalAlign=middle;whiteSpace=wrap;rounded=0;" vertex="1" parent="1">
          <mxGeometry x="150" y="430" width="60" height="30" as="geometry" />
        </mxCell>
        <mxCell id="00a7FrYYv4S6n3pGf6au-20" value="&amp;lt;&amp;lt;include&amp;gt;&amp;gt;" style="text;html=1;align=center;verticalAlign=middle;whiteSpace=wrap;rounded=0;" vertex="1" parent="1">
          <mxGeometry x="330" y="800" width="60" height="30" as="geometry" />
        </mxCell>
        <mxCell id="00a7FrYYv4S6n3pGf6au-28" style="edgeStyle=orthogonalEdgeStyle;rounded=0;orthogonalLoop=1;jettySize=auto;html=1;entryX=0;entryY=0.5;entryDx=0;entryDy=0;dashed=1;" edge="1" parent="1" source="00a7FrYYv4S6n3pGf6au-26" target="00a7FrYYv4S6n3pGf6au-8">
          <mxGeometry relative="1" as="geometry" />
        </mxCell>
        <mxCell id="00a7FrYYv4S6n3pGf6au-26" value="Entrer les données pour statistiques" style="ellipse;whiteSpace=wrap;html=1;" vertex="1" parent="1">
          <mxGeometry x="120" y="600" width="120" height="80" as="geometry" />
        </mxCell>
        <mxCell id="00a7FrYYv4S6n3pGf6au-27" value="" style="endArrow=none;html=1;rounded=0;entryX=0;entryY=0.5;entryDx=0;entryDy=0;" edge="1" parent="1" source="00a7FrYYv4S6n3pGf6au-1" target="00a7FrYYv4S6n3pGf6au-26">
          <mxGeometry width="50" height="50" relative="1" as="geometry">
            <mxPoint x="360" y="680" as="sourcePoint" />
            <mxPoint x="410" y="630" as="targetPoint" />
          </mxGeometry>
        </mxCell>
        <mxCell id="00a7FrYYv4S6n3pGf6au-30" value="Bouton &quot;Participer&quot; sur la page d&#39;activité" style="shape=note2;boundedLbl=1;whiteSpace=wrap;html=1;size=25;verticalAlign=top;align=center;" vertex="1" parent="1">
          <mxGeometry x="220" y="415" width="120" height="60" as="geometry" />
        </mxCell>
        <mxCell id="00a7FrYYv4S6n3pGf6au-33" style="edgeStyle=orthogonalEdgeStyle;rounded=0;orthogonalLoop=1;jettySize=auto;html=1;entryX=0;entryY=0.5;entryDx=0;entryDy=0;dashed=1;" edge="1" parent="1" source="00a7FrYYv4S6n3pGf6au-31" target="00a7FrYYv4S6n3pGf6au-8">
          <mxGeometry relative="1" as="geometry" />
        </mxCell>
        <mxCell id="00a7FrYYv4S6n3pGf6au-31" value="CRUD des activiés" style="ellipse;whiteSpace=wrap;html=1;" vertex="1" parent="1">
          <mxGeometry x="120" y="690" width="120" height="80" as="geometry" />
        </mxCell>
        <mxCell id="00a7FrYYv4S6n3pGf6au-32" value="" style="endArrow=none;html=1;rounded=0;entryX=0;entryY=0.5;entryDx=0;entryDy=0;" edge="1" parent="1" source="00a7FrYYv4S6n3pGf6au-1" target="00a7FrYYv4S6n3pGf6au-31">
          <mxGeometry width="50" height="50" relative="1" as="geometry">
            <mxPoint x="400" y="760" as="sourcePoint" />
            <mxPoint x="450" y="710" as="targetPoint" />
          </mxGeometry>
        </mxCell>
        <mxCell id="00a7FrYYv4S6n3pGf6au-35" style="edgeStyle=orthogonalEdgeStyle;rounded=0;orthogonalLoop=1;jettySize=auto;html=1;entryX=0;entryY=0.5;entryDx=0;entryDy=0;dashed=1;" edge="1" parent="1" source="00a7FrYYv4S6n3pGf6au-34" target="00a7FrYYv4S6n3pGf6au-8">
          <mxGeometry relative="1" as="geometry" />
        </mxCell>
        <mxCell id="00a7FrYYv4S6n3pGf6au-34" value="CRUD des adhérents" style="ellipse;whiteSpace=wrap;html=1;" vertex="1" parent="1">
          <mxGeometry x="120" y="870" width="120" height="80" as="geometry" />
        </mxCell>
        <mxCell id="00a7FrYYv4S6n3pGf6au-36" value="" style="endArrow=none;html=1;rounded=0;entryX=0;entryY=0.5;entryDx=0;entryDy=0;" edge="1" parent="1" source="00a7FrYYv4S6n3pGf6au-1" target="00a7FrYYv4S6n3pGf6au-34">
          <mxGeometry width="50" height="50" relative="1" as="geometry">
            <mxPoint x="400" y="740" as="sourcePoint" />
            <mxPoint x="450" y="690" as="targetPoint" />
          </mxGeometry>
        </mxCell>
        <mxCell id="00a7FrYYv4S6n3pGf6au-39" style="edgeStyle=orthogonalEdgeStyle;rounded=0;orthogonalLoop=1;jettySize=auto;html=1;entryX=0;entryY=0.5;entryDx=0;entryDy=0;dashed=1;" edge="1" parent="1" source="00a7FrYYv4S6n3pGf6au-37" target="00a7FrYYv4S6n3pGf6au-8">
          <mxGeometry relative="1" as="geometry" />
        </mxCell>
        <mxCell id="00a7FrYYv4S6n3pGf6au-37" value="CRUD des séances" style="ellipse;whiteSpace=wrap;html=1;" vertex="1" parent="1">
          <mxGeometry x="120" y="780" width="120" height="80" as="geometry" />
        </mxCell>
        <mxCell id="00a7FrYYv4S6n3pGf6au-38" value="" style="endArrow=none;html=1;rounded=0;exitX=0;exitY=0.5;exitDx=0;exitDy=0;" edge="1" parent="1" source="00a7FrYYv4S6n3pGf6au-37" target="00a7FrYYv4S6n3pGf6au-1">
          <mxGeometry width="50" height="50" relative="1" as="geometry">
            <mxPoint x="440" y="960" as="sourcePoint" />
            <mxPoint x="490" y="910" as="targetPoint" />
          </mxGeometry>
        </mxCell>
        <mxCell id="00a7FrYYv4S6n3pGf6au-43" style="edgeStyle=orthogonalEdgeStyle;rounded=0;orthogonalLoop=1;jettySize=auto;html=1;entryX=0;entryY=0.5;entryDx=0;entryDy=0;dashed=1;" edge="1" parent="1" source="00a7FrYYv4S6n3pGf6au-40" target="00a7FrYYv4S6n3pGf6au-8">
          <mxGeometry relative="1" as="geometry" />
        </mxCell>
        <mxCell id="00a7FrYYv4S6n3pGf6au-40" value="Extraire les statistique pour traitement" style="ellipse;whiteSpace=wrap;html=1;" vertex="1" parent="1">
          <mxGeometry x="120" y="1050" width="120" height="80" as="geometry" />
        </mxCell>
        <mxCell id="00a7FrYYv4S6n3pGf6au-41" value="" style="endArrow=none;html=1;rounded=0;entryX=0;entryY=0.5;entryDx=0;entryDy=0;" edge="1" parent="1" source="00a7FrYYv4S6n3pGf6au-1" target="00a7FrYYv4S6n3pGf6au-40">
          <mxGeometry width="50" height="50" relative="1" as="geometry">
            <mxPoint x="450" y="910" as="sourcePoint" />
            <mxPoint x="500" y="860" as="targetPoint" />
          </mxGeometry>
        </mxCell>
        <mxCell id="00a7FrYYv4S6n3pGf6au-42" value="Un bouton qui génère un fichier SQL avec tout le script afin de pouvoir de traiter les données dans un logiciel de type Excel&amp;nbsp;" style="shape=note2;boundedLbl=1;whiteSpace=wrap;html=1;size=25;verticalAlign=top;align=center;" vertex="1" parent="1">
          <mxGeometry x="330" y="1010" width="120" height="120" as="geometry" />
        </mxCell>
      </root>
    </mxGraphModel>
  </diagram>
</mxfile>
